<svg xmlns="http://www.w3.org/2000/svg" xmlns:xlink="http://www.w3.org/1999/xlink" id="exportSvg" width="600" height="3599"><defs/><g><g id="__svelte-dw-svg" clip-path="url(#rect-mask-lqPUJ_zrVOBBrZDb7o5j0)"><clipPath id="rect-mask-lqPUJ_zrVOBBrZDb7o5j0"><rect x="0" y="0" width="600" height="3599"/></clipPath><g id="outer-container-svg dw-chart-styles-svg datawrapper-Ho8Tn-cadg66-svg svelte-crzbxb-svg static-svg" clip-path="url(#rect-mask-yor1bSaXz1ZmF5tcpzjzI)"><clipPath id="rect-mask-yor1bSaXz1ZmF5tcpzjzI"><rect x="0" y="0" width="600" height="3599"/></clipPath><g id="header-svg"><text transform="translate(0, 0)"><tspan fill="rgb(0,0,0)" x="0" y="22" style="font-family: Roboto; font-weight: 700; font-stretch: 100%; font-size: 22px;">Population of Venice (historical island)</tspan></text><text transform="translate(0, 35)"><tspan fill="rgb(24,24,24)" x="0" y="14" style="font-family: Roboto; font-weight: 400; font-stretch: 100%; font-size: 14px;">(1871 - 2022)</tspan></text></g><g id="chart-svg"><g id="svg-main-svg" clip-path="url(#rect-mask-3UMOqKIIKQZMOnnwZZ0OM)" transform="translate(0, 62)"><clipPath id="rect-mask-3UMOqKIIKQZMOnnwZZ0OM"><rect x="0" y="0" width="600" height="3504"/></clipPath><g id="group-svg" transform="translate(0, 6)"><g id="x-grid-svg"/><g id="lines-svg"><g id="X.2-svg"><path d="M58.86731391584752,844.4357406221042L93.98951372512985,821.6954071273215L164.21464048567648,484.83871532074477L199.32722567688893,334.3339732550899L234.44942548617126,257.4186787839956L269.56201067738374,183.83621743663173L287.1183032729899,178.94007651357478L339.7967956778785,0L343.30613127338574,5.697756216609685L346.825081486963,41.625501030744665L350.3344170824702,69.84175381190428L353.8437526779775,125.15097710606987L357.35308827348473,196.11465113891717L360.87203848706184,271.2672054675899L364.3813740825691,345.47311743981396L367.89070967807635,418.56053266072394L371.4000452735837,509.06295010781787L374.9189954871608,670.5469286214492L378.42833108266814,773.2315948376752L381.9376666781754,829.8595357152635L385.44700227368264,887.2360791478826L388.9659524872598,955.0834787162986L392.47528808276707,1009.7663535325999L395.9846236782743,1065.4600135082426L399.49395927378157,1127.02544612123L403.01290948735874,1191.5504067486943L406.522245082866,1241.565500869753L410.03158067837325,1320.072794937243L413.5409162738806,1369.1939531035962L417.0598664874577,1361.6793213467142L420.56920208296503,1391.5996184121238L424.07853767847223,1429.792831039006L427.5878732739795,1481.65133355377L431.1068234875567,1526.9089426546527L434.61615908306396,1566.1685380654521L438.1254946785712,1619.8804542925636L441.63483027407847,1678.9783144083972L445.15378048765564,1726.522107314596L448.6631160831629,1770.5742130508775L452.17245167867014,1822.178796812763L455.68178727417745,1898.9858709415068L459.20073748775457,1958.2017785397904L462.7100730832619,2013.8936324116535L466.2194086787691,2068.557707829274L469.7287442742764,2126.473939779692L473.2476944878536,2178.178763084899L476.75703008336086,2224.5327650820245L480.2663656788681,2278.8442989638997L483.77570127437536,2332.920358565454L487.2946514879525,2407.84128802579L490.80398708345973,2450.1796083433283L494.313322678967,2488.19309850794L497.82265827447435,2533.1737020248806L501.34160848805146,2585.29707911871L504.8509440835588,2616.1693962693303L508.360279679066,2652.793565312355L511.8696152745733,2675.969022000393L515.3885654881504,2704.888253385378L518.8979010836578,2773.8545357480716L522.407236679165,2779.424429901088L525.9165722746723,2805.2176924080545L529.4355224882494,2851.719654791468L532.9448580837567,2882.2790136672197L536.4541936792639,2920.948212133353L539.9635292747712,2941.220735440593L543.4824794883484,2958.1827290158267L546.9918150838556,2973.0234280282607L550.5011506793629,3002.383768630853L554.0104862748702,3038.9822704268195L557.5294364884472,3112.6906934853055L561.0387720839545,3130.88913556497L564.5481076794619,3166.5554490667905L568.057443274969,3210.860655277643L571.5763934885462,3257.0176609512123L575.0857290840535,3298.5817144094835L578.5950646795608,3343.429375956075L582.1044002750681,3393.4390312805685L585.6233504886452,3435.5331322309353L589.1326860841525,3478" stroke="rgb(143,27,17)" id="X.2" style="fill: none; stroke-width: 2; stroke-linejoin: round; stroke-linecap: round; stroke: rgb(143, 27, 17);"/></g></g><g id="line-symbols-svg"/><g id="x-grid-svg"><g id="x-tick-labels-svg date-axis-svg grid-x-svg datawrapper-Ho8Tn-63wp0p-svg" transform="translate(0, 3483)"><text transform="translate(90.47056, 12) translate(-13.60742, 0) translate(13.607421875, 0)" style="text-anchor: middle;"><tspan fill="rgb(116, 116, 116)" style="font-family: Roboto; font-weight: 400; font-stretch: 100%; font-size: 12px;" x="0" dominant-baseline="auto" y="0">1880</tspan></text><text transform="translate(160.7053, 12) translate(-13.60742, 0) translate(13.607421875, 0)" style="text-anchor: middle;"><tspan fill="rgb(116, 116, 116)" style="font-family: Roboto; font-weight: 400; font-stretch: 100%; font-size: 12px;" x="0" dominant-baseline="auto" y="0">1900</tspan></text><text transform="translate(230.93048, 12) translate(-13.60742, 0) translate(13.607421875, 0)" style="text-anchor: middle;"><tspan fill="rgb(116, 116, 116)" style="font-family: Roboto; font-weight: 400; font-stretch: 100%; font-size: 12px;" x="0" dominant-baseline="auto" y="0">1920</tspan></text><text transform="translate(301.16526, 12) translate(-13.60742, 0) translate(13.607421875, 0)" style="text-anchor: middle;"><tspan fill="rgb(116, 116, 116)" style="font-family: Roboto; font-weight: 400; font-stretch: 100%; font-size: 12px;" x="0" dominant-baseline="auto" y="0">1940</tspan></text><text transform="translate(371.40005, 12) translate(-13.60742, 0) translate(13.607421875, 0)" style="text-anchor: middle;"><tspan fill="rgb(116, 116, 116)" style="font-family: Roboto; font-weight: 400; font-stretch: 100%; font-size: 12px;" x="0" dominant-baseline="auto" y="0">1960</tspan></text><text transform="translate(441.63483, 12) translate(-13.60742, 0) translate(13.607421875, 0)" style="text-anchor: middle;"><tspan fill="rgb(116, 116, 116)" style="font-family: Roboto; font-weight: 400; font-stretch: 100%; font-size: 12px;" x="0" dominant-baseline="auto" y="0">1980</tspan></text><text transform="translate(511.86962, 12) translate(-13.60742, 0) translate(13.607421875, 0)" style="text-anchor: middle;"><tspan fill="rgb(116, 116, 116)" style="font-family: Roboto; font-weight: 400; font-stretch: 100%; font-size: 12px;" x="0" dominant-baseline="auto" y="0">2000</tspan></text><text transform="translate(582.1044, 12) translate(-13.60742, 0) translate(13.607421875, 0)" style="text-anchor: middle;"><tspan fill="rgb(116, 116, 116)" style="font-family: Roboto; font-weight: 400; font-stretch: 100%; font-size: 12px;" x="0" dominant-baseline="auto" y="0">2020</tspan></text></g></g></g></g><g id="svelte-1gf2ad6-svg" transform="translate(346, 70)"><g id="callout-line-svg"><path d="M 67.74899963802228,-19 Q 41.987744205448244,4.944058370544866 4.983823495845006,0.6922260463181082" stroke="rgb(24,24,24)" style="fill: none; stroke-width: 1; stroke-linejoin: miter; stroke-linecap: butt; stroke: rgb(24, 24, 24);"/><path d="M-4.75,-3.75 L 0,0 L -4.75,3.75" stroke="rgb(24,24,24)" transform="translate(4.98382, 0.69223) rotate(-176.35032483287216)" style="fill: none; stroke-width: 1; stroke-linejoin: miter; stroke-linecap: butt; stroke: rgb(24, 24, 24);"/></g></g><text transform="translate(381, 30)"><tspan fill="rgb(24,24,24)" x="0" y="14" style="font-family: Roboto; font-weight: 400; font-stretch: 100%; font-size: 14px;">1951: 174,808</tspan></text><g id="svelte-1gf2ad6-svg" transform="translate(425, 1426)"><g id="callout-line-svg"><path d="M 67.08933971257856,-32 Q 44.56579594533193,-1.6752223208134316 4.992221243664842,-0.08645183447032401" stroke="rgb(24,24,24)" style="fill: none; stroke-width: 1; stroke-linejoin: miter; stroke-linecap: butt; stroke: rgb(24, 24, 24);"/><path d="M-4.75,-3.75 L 0,0 L -4.75,3.75" stroke="rgb(24,24,24)" transform="translate(4.99222, -0.08645) rotate(174.87839875997597)" style="fill: none; stroke-width: 1; stroke-linejoin: miter; stroke-linecap: butt; stroke: rgb(24, 24, 24);"/></g></g><text transform="translate(456, 1373)"><tspan fill="rgb(24,24,24)" x="0" y="14" style="font-family: Roboto; font-weight: 400; font-stretch: 100%; font-size: 14px;">1963: 106,806</tspan></text><g id="svelte-1gf2ad6-svg" transform="translate(586, 3547)"><g id="callout-line-svg"><path d="M -67.27607579128679,-32.99999999999999 Q -44.91101444747042,-2.1338335197046656 -5.032035429436238,-0.13676210680132805" stroke="rgb(24,24,24)" style="fill: none; stroke-width: 1; stroke-linejoin: miter; stroke-linecap: butt; stroke: rgb(24, 24, 24);"/><path d="M-4.75,-3.75 L 0,0 L -4.75,3.75" stroke="rgb(24,24,24)" transform="translate(-5.03204, -0.13676) rotate(5.672568227465961)" style="fill: none; stroke-width: 1; stroke-linejoin: miter; stroke-linecap: butt; stroke: rgb(24, 24, 24);"/></g></g><text transform="translate(471, 3493)"><tspan fill="rgb(24,24,24)" x="0" y="14" style="font-family: Roboto; font-weight: 400; font-stretch: 100%; font-size: 14px;">2022: 49,665</tspan></text><g id="svelte-1gf2ad6-svg" transform="translate(56, 908)"><g id="callout-line-svg"><path d="M -13.645720819642658,-47 Q -17.9822267467608,-23.83882812970679 -3.1210344826700473,-3.904160157095751" stroke="rgb(24,24,24)" style="fill: none; stroke-width: 1; stroke-linejoin: miter; stroke-linecap: butt; stroke: rgb(24, 24, 24);"/><path d="M-4.75,-3.75 L 0,0 L -4.75,3.75" stroke="rgb(24,24,24)" transform="translate(-3.12103, -3.90416) rotate(57.59999794501125)" style="fill: none; stroke-width: 1; stroke-linejoin: miter; stroke-linecap: butt; stroke: rgb(24, 24, 24);"/></g></g><text transform="translate(2, 840)"><tspan fill="rgb(24,24,24)" x="0" y="14" style="font-family: Roboto; font-weight: 400; font-stretch: 100%; font-size: 14px;">1871: 128,787</tspan></text><g id="tooltip-layer-svg" clip-path="url(#rect-mask-TsffX3HVu9bawuFnC--0F)" transform="translate(0, 62)"><clipPath id="rect-mask-TsffX3HVu9bawuFnC--0F"><rect x="0" y="0" width="600" height="3504"/></clipPath><g id="group-svg" transform="translate(0, 6)"/></g></g><g id="footer-svg"><text transform="translate(0, 3586)"><tspan fill="rgb(136,136,136)" x="0" y="11" style="font-family: Roboto; font-weight: 400; font-stretch: 100%; font-size: 11px;">Chart:</tspan><tspan fill="rgb(136,136,136)" dx="2.734375" style="font-family: Roboto; font-weight: 400; font-stretch: 100%; font-size: 11px;">Marco Dalla Stella</tspan><tspan fill="rgb(136,136,136)" dx="2.734375" style="font-family: Roboto; font-weight: 400; font-stretch: 100%; font-size: 11px;">•</tspan><tspan fill="rgb(136,136,136)" dx="2.734375" style="font-family: Roboto; font-weight: 400; font-stretch: 100%; font-size: 11px;">Source</tspan><tspan fill="rgb(136,136,136)" style="font-family: Roboto; font-weight: 400; font-stretch: 100%; font-size: 11px;">:</tspan><tspan fill="rgb(136,136,136)" dx="2.734375" style="font-family: Roboto; font-weight: 400; font-stretch: 100%; font-size: 11px;">Comune di Venezi</tspan><tspan fill="rgb(136,136,136)" dx="2.734375" style="font-family: Roboto; font-weight: 400; font-stretch: 100%; font-size: 11px;">•</tspan><tspan fill="rgb(136,136,136)" dx="2.734375" style="font-family: Roboto; font-weight: 400; font-stretch: 100%; font-size: 11px;">Created with</tspan><tspan fill="rgb(136,136,136)" dx="2.734375" style="font-family: Roboto; font-weight: 400; font-stretch: 100%; font-size: 11px;">Datawrapper</tspan></text></g></g></g></g></svg>