<?xml version="1.0" encoding="utf-8"?>
<!-- Generator: Adobe Illustrator 27.2.0, SVG Export Plug-In . SVG Version: 6.00 Build 0)  -->
<svg version="1.2" baseProfile="tiny" id="g-1TkNp--insert-title-here--rgb-Artboard_1-interactions-img" xmlns="http://www.w3.org/2000/svg" xmlns:xlink="http://www.w3.org/1999/xlink"
	 x="0px" y="0px" viewBox="0 0 1100 1475.387" overflow="visible" xml:space="preserve">
<g>
	<path id="mudd-icon_00000161622000753631514070000016688599875382557854_" fill="#333333" d="M216,1193.965c0,4.971-4.029,9-9,9
		s-9-4.029-9-9s4.029-9,9-9S216,1188.994,216,1193.965z"/>
	<path id="tier-icon_00000145761852312883973520000017669347643409787278_" fill="#333333" d="M147,1277.965c0,4.971-4.029,9-9,9
		s-9-4.029-9-9s4.029-9,9-9S147,1272.994,147,1277.965z"/>
	<path id="gogo-icon_00000089537863660404396870000016261043434826836626_" fill="#333333" d="M249,1034.965c0,4.971-4.029,9-9,9
		s-9-4.029-9-9s4.029-9,9-9S249,1029.994,249,1034.965z"/>
	<path id="bottomline-icon_00000137122628499097821650000003211395113532773819_" fill="#333333" d="M300,1022.965
		c0,4.971-4.029,9-9,9s-9-4.029-9-9s4.029-9,9-9S300,1017.994,300,1022.965z"/>
	<path id="cbgb-icon_00000094582180100421655320000016698429335902406299_" fill="#333333" d="M336,1079.965c0,4.971-4.029,9-9,9
		s-9-4.029-9-9s4.029-9,9-9S336,1074.994,336,1079.965z"/>
	<path id="a7-icon_00000181053055021841049900000002728888548728783749_" fill="#333333" d="M433,1069.965c0,4.971-4.029,9-9,9
		s-9-4.029-9-9s4.029-9,9-9S433,1064.994,433,1069.965z"/>
	<path id="_x38_2-icon_00000026144025354617561500000003429242526393697159_" fill="#333333" d="M359,1063.965c0,4.971-4.029,9-9,9
		s-9-4.029-9-9s4.029-9,9-9S359,1058.994,359,1063.965z"/>
	<path id="palladium-icon_00000023976824503827801660000014600315430372838305_" fill="#333333" d="M377,956.965
		c0,4.971-4.029,9-9,9s-9-4.029-9-9s4.029-9,9-9S377,951.994,377,956.965z"/>
	<path id="coneyisland-icon_00000091715679215988391300000016490781277244226196_" fill="#333333" d="M371,1017.965
		c0,4.971-4.029,9-9,9s-9-4.029-9-9s4.029-9,9-9S371,1012.994,371,1017.965z"/>
	<path id="max-icon_00000078028226713964558220000012297061338230110644_" fill="#333333" d="M374,905.965c0,4.971-4.029,9-9,9
		s-9-4.029-9-9s4.029-9,9-9S374,900.994,374,905.965z"/>
	<path id="fillmore-icon_00000000197610521254963360000014493845357654315669_" fill="#333333" d="M372,1041.965
		c0,4.971-4.029,9-9,9s-9-4.029-9-9s4.029-9,9-9S372,1036.994,372,1041.965z"/>
	<path id="gildersleeve-icon_00000168811147815081143930000013185101690221033102_" fill="#333333" d="M340,1069.965
		c0,4.971-4.029,9-9,9s-9-4.029-9-9s4.029-9,9-9S340,1064.994,340,1069.965z"/>
	<path id="jp-icon_00000147188617649799207060000005368369711291744903_" fill="#333333" d="M900,157.965c0,4.971-4.029,9-9,9
		s-9-4.029-9-9s4.029-9,9-9S900,152.994,900,157.965z"/>
	<path id="trax-icon_00000083079017443901140270000015555131255492408212_" fill="#333333" d="M479,299.965c0,4.971-4.029,9-9,9
		s-9-4.029-9-9c0-4.971,4.029-9,9-9S479,294.994,479,299.965z"/>
	<path id="hurrah-icon_00000148637211143003763840000001862969286982353077_" fill="#333333" d="M589,481.965c0,4.971-4.029,9-9,9
		s-9-4.029-9-9c0-4.971,4.029-9,9-9S589,476.994,589,481.965z"/>
</g>
<style>
#g-1TkNp--insert-title-here--rgb-Artboard_1-interactions-img rect, #g-1TkNp--insert-title-here--rgb-Artboard_1-interactions-img circle, #g-1TkNp--insert-title-here--rgb-Artboard_1-interactions-img path, #g-1TkNp--insert-title-here--rgb-Artboard_1-interactions-img line, #g-1TkNp--insert-title-here--rgb-Artboard_1-interactions-img polyline, #g-1TkNp--insert-title-here--rgb-Artboard_1-interactions-img polygon { vector-effect: non-scaling-stroke; }
</style>
</svg>

